PathFileType	4	(X/Y/Z)	15_2_48_p0_0-407.trc
DataRate	CameraRate	NumFrames	NumMarkers	Units	OrigDataRate	OrigDataStartFrame	OrigNumFrames
60.0	60.0	5	27	m	60.0	255	408
Frame#	Time	RHip			RKnee			RAnkle			RBigToe			RSmallToe			RHeel			LHip			LKnee			LAnkle			LBigToe			LSmallToe			LHeel			Neck			Head			Nose			RShoulder			RElbow			RWrist			RThumb			RIndex			RPinky			LShoulder			LElbow			LWrist			LThumb			LIndex			LPinky			
		X1	Y1	Z1	X2	Y2	Z2	X3	Y3	Z3	X4	Y4	Z4	X5	Y5	Z5	X6	Y6	Z6	X7	Y7	Z7	X8	Y8	Z8	X9	Y9	Z9	X10	Y10	Z10	X11	Y11	Z11	X12	Y12	Z12	X13	Y13	Z13	X14	Y14	Z14	X15	Y15	Z15	X16	Y16	Z16	X17	Y17	Z17	X18	Y18	Z18	X19	Y19	Z19	X20	Y20	Z20	X21	Y21	Z21	X22	Y22	Z22	X23	Y23	Z23	X24	Y24	Z24	X25	Y25	Z25	X26	Y26	Z26	X27	Y27	Z27	
255	4.25	0.24970853142319213	0.35156716769982455	1.15535196211844	0.24283025779885006	0.18566794090142244	1.5276080011786528	0.24745529291082694	0.19393565794499054	1.90365140861918	0.2350703007055844	0.018870855603763472	1.907854601138044	0.2989182570899528	0.05895686380916236	1.9209926889254703	0.23942176510551746	0.26386684739428773	2.006291454582799	0.016120487092902192	0.3605659906092181	1.1676061724452276	0.017212298315124976	0.2009169305578136	1.53530817800175	0.06054609170998223	0.21622064377139275	1.9256472715075907	0.07847173767589252	0.03030806420289387	1.9008549600329585	0.019785485841023513	0.07877068632300449	1.9366771960166436	0.08394820146509713	0.2588932875135504	1.9855421486827558	0.10003999674579077	0.32252571176499206	0.6118350272317892	0.07768540126188761	0.23979700032180357	0.32608846584608875	0.07614740736547247	0.18688687906927506	0.49094089233723587	0.25668057229958946	0.32679583055154515	0.660662972075784	0.31997095515125024	0.3050448878771951	0.9191182089237977	0.17228095209186112	0.21605271634825723	1.0590656413763821	0.03831287609453294	0.19639411315023583	1.0744247278136545	0.04095213346795524	0.20113510172505683	1.1046341207763533	0.08393806288621236	0.22105437406781808	1.1423938222482228	-0.051323235404454375	0.36552460920514157	0.6538973195525214	-0.10739162847059455	0.35427229179670877	0.8983275567904614	0.026524023083371408	0.20884933031624017	1.0146507593106973	0.10282066207774149	0.17272113571817302	1.0650324250566914	0.10446098186682375	0.16727255101157587	1.0855900154325968	0.09435203653816641	0.21504895630638393	1.1145326600152567
256	4.266666666666667	0.24977418768211995	0.3515719311646764	1.15496158901194	0.2382830278069618	0.17497667336821393	1.5196848767653341	0.24751592204373501	0.19342768551049394	1.9033884333931188	0.23140768971836675	0.01745409251199128	1.9072952544225128	0.29798985129599365	0.045142736598934405	1.9082364786397519	0.23956330394978279	0.2636584104984207	2.0062661644551376	0.01293775645333586	0.35057386338409025	1.1579865640483218	0.016524839455339516	0.19956244454282238	1.5391883575614456	0.06061322864281693	0.21596881417833202	1.9256070816545072	0.0716376523182516	0.03206711041592205	1.9028117513753158	0.019771798543804963	0.078819519707791	1.9364864706085618	0.08413522605174821	0.25876641815791274	1.985049454806462	0.10039547799392229	0.3210531846738854	0.6145215418587269	0.08889284740605535	0.24906225635801213	0.33062001350216913	0.0828235719785254	0.18616229142327395	0.49047568357130894	0.2611939360241712	0.31328619389944934	0.6626240908932972	0.31861248402315406	0.3151403683232838	0.9370786983029492	0.16515411328135832	0.21720714276971173	1.0606160014787323	0.046534050441457475	0.20627051357838275	1.0850984829853578	0.04100607366015481	0.20136459899260487	1.104946223290229	0.08397390093580523	0.220905775462843	1.1423903370031385	-0.050765705166760794	0.3665456067699379	0.6509356436934739	-0.10310510530869733	0.34211496668964697	0.8925890344137222	0.02651922808960213	0.20882551264328672	1.0145661835259325	0.09947183838605114	0.18308816433938235	1.0746927566030813	0.10098687724020376	0.17826538817587081	1.092379405214755	0.08678169930070444	0.20392089956601625	1.1085192538096729
257	4.283333333333333	0.24976170454121735	0.351561984407278	1.1544836395622868	0.24287387584067197	0.18555641007569335	1.5273403209805512	0.2506840787731965	0.1800037627212549	1.8909885194413723	0.23517614668918818	0.019180033058985843	1.9082502380012134	0.3022068625283576	0.047037992499999355	1.9089279189953101	0.23941472047510248	0.26316800266483326	2.005580950070154	0.01653390369304961	0.36162804342819743	1.1636689177559674	0.016366753536328955	0.19962426092819188	1.5392494556533103	0.06055204756169701	0.216144321221106	1.9258031244429552	0.07411188744358692	0.04101930494276254	1.9160346128969368	0.019706528713453936	0.07887655577323675	1.9368892485084035	0.08419124603206601	0.2590411923781247	1.9846646664869503	0.10868396481514646	0.33404295534595707	0.6155425834872267	0.10003751507520982	0.2581433358976832	0.3357394174650043	0.08680187202843617	0.19493996683245685	0.49359067858385314	0.2652093627916391	0.31472965436437794	0.6630454290503127	0.31896513904171986	0.3166424194794187	0.9376198780084075	0.1647480839924731	0.21643450436488684	1.064097220713077	0.04844316024787901	0.20333102451186427	1.0976749913063246	0.045051077976179736	0.2100813097297503	1.1145048250866902	0.09132664081422397	0.2183799875446238	1.1525096004459132	-0.050349988498248406	0.36663479055890064	0.6507353477532785	-0.1070380256159139	0.3539730740699341	0.8983735608511884	0.026554756998380166	0.20868084344756332	1.014532939125808	0.09994376009318068	0.18217694284854002	1.0779787910881513	0.10137947028545742	0.1771172897625372	1.0961664568976686	0.08694695013829924	0.2041017009790547	1.108827372708158
258	4.3	0.2479915442867027	0.32938646038428526	1.1374323854879345	0.24690169837866627	0.1863198200273342	1.5281723488620782	0.25210337062226346	0.20463374405342977	1.9122108675786846	0.2357669200123146	0.02041436944676321	1.9069572003942896	0.30130011805415785	0.04802852147609166	1.9029335256945685	0.2427716591239338	0.27623176887088163	2.0065173145222914	0.012503756726008867	0.35165847492773383	1.1534943719017268	0.017270149819791934	0.2009148421087064	1.5352223402914589	0.06065655601090275	0.21633569201787414	1.9261456302338031	0.07432541083473641	0.04046771537042996	1.916692900000394	0.01957694544737833	0.07873195000461032	1.937504346928025	0.08441142987353116	0.2596385355949691	1.985497684040267	0.11263808696408416	0.3463329377099722	0.6162948822331699	0.10693969243504507	0.2627256487938694	0.32700882418428723	0.09832189486307705	0.21423058557913507	0.49957526380970513	0.27321109437626906	0.3251088934253659	0.666335425675965	0.32182087214020744	0.3049700396652435	0.92713744384265	0.16896402471672317	0.22760205097995562	1.0663534253141504	0.04980517833539729	0.19101948385319661	1.0953324009691672	0.04622640878668258	0.20208930703158481	1.1099106613696657	0.09148000789963788	0.21859143913095924	1.1527399092778143	-0.03949307056603813	0.3673748868184428	0.6500980612398986	-0.10007151452884738	0.35261277956320186	0.8974293374399228	0.030768867144171704	0.2100352006702315	1.0150329350077931	0.10015412295746093	0.18058817670038	1.080651452346908	0.10540708522026804	0.17815647950067692	1.0966045237993136	0.08700713319584917	0.20363685038206597	1.1084231232570059
259	4.316666666666666	0.2494940455198094	0.35316047554540053	1.150157747971688	0.2471908326700783	0.1867979124431949	1.5283542141917361	0.24757521781761418	0.193665980889235	1.9031818274680916	0.23604424339283742	0.020728058635647802	1.9065261799285271	0.30309844743136066	0.04856320778258482	1.9079355062139958	0.23440669271181655	0.2555776167156486	1.9859233107327576	0.016723998095255835	0.3644980464450014	1.156787917058053	0.021561861595419025	0.21253664209898276	1.5390287140057393	0.060664508034150494	0.2167131591798176	1.926223446073499	0.07986715353815872	0.02997290035886331	1.9063648938437021	0.019829321974555045	0.07863141038026694	1.9370075703665948	0.07986743829235667	0.2733739311991414	1.9983617514369023	0.12375411428668573	0.34717986390806616	0.6154500177891628	0.11403761139983562	0.2539019455623264	0.3236607498509154	0.10565283500816812	0.20782101777870027	0.49311388740797735	0.27636711524070345	0.31330288977565746	0.6616283381834887	0.32621934407995234	0.3150763225006854	0.931973649006547	0.1689829582777687	0.2276743435821723	1.066318854569605	0.052622757288857305	0.19263057436101244	1.0910379926991356	0.04571143062452212	0.2020408238896795	1.1096860275154303	0.09150671946124832	0.21841284357432617	1.1530221847626636	-0.03895020009109459	0.3682305295643302	0.6470539235545073	-0.09612792690059085	0.34227209281046234	0.8871023427268907	0.026672558097839815	0.2085365103113394	1.0143974940648652	0.10008822230270112	0.18024383710025038	1.080484442558319	0.1054049653911401	0.1780955409504213	1.0965777087682482	0.08684544561340678	0.20414111652302278	1.1087506553602708
